<svg  xmlns="http://www.w3.org/2000/svg" viewBox="0 0 32 32">
<path d="M22.824 2.238c3.064 0 5.548 2.484 5.548 5.548v0 11.901c0 2.319-1.881 4.2-4.2 4.2v0l-1.545-0.001v1.676c0 2.32-1.88 4.199-4.199 4.199h-10.6c-2.32 0-4.199-1.88-4.199-4.199v-13.25c0-2.319 1.88-4.2 4.199-4.2l1.544-0.001 0.001-1.673c0-2.251 1.771-4.089 3.996-4.195l0.203-0.005zM22.824 4.716h-9.251c-0.95 0-1.723 0.773-1.723 1.723v0 1.673l6.788 0.001c2.203 0 3.989 1.786 3.989 3.99v9.307h1.545c0.902 0 1.645-0.698 1.717-1.582l0.006-0.141v-11.901c0-1.693-1.377-3.070-3.070-3.070v0z"></path>
</svg>