<svg width="36" height="36" viewBox="0 0 36 36" fill="none" xmlns="http://www.w3.org/2000/svg">
<g clip-path="url(#clip0_13789_69375)">
<path d="M18 0.0651855C8.09511 0.0651855 0.0652161 8.09508 0.0652161 18C0.0652161 27.9049 8.09511 35.9347 18 35.9347C27.9049 35.9347 35.9348 27.9049 35.9348 18C35.9348 8.09508 27.9049 0.0651855 18 0.0651855Z" fill="#2C3C7A"/>
<path d="M18 5.10482L10.1535 17.9999L18 22.8203V5.104V5.10482ZM10.1535 19.2814L18 30.8893V24.1638L10.1535 19.2806V19.2814Z" fill="white"/>
<path opacity="0.92" d="M10.1535 18.0001L18 22.8205L25.8465 18.0001L18 5.10498V13.1797L10.1535 18.0001ZM18 30.8911L25.8465 19.2808L18 24.1648V30.8903V30.8911Z" fill="#BACAF5"/>
<path d="M18 13.1796V22.8203L25.8465 17.9999L18 13.1796Z" fill="#88A2EB"/>
</g>
<defs>
<clipPath id="clip0_13789_69375">
<rect width="36" height="36" fill="white"/>
</clipPath>
</defs>
</svg>
