<svg  xmlns="http://www.w3.org/2000/svg" viewBox="0 0 32 32">
<path d="M1.181 10.595c-0.102-0.491 0.041-0.816 0.43-0.976 0.584-0.24 1.001 0.084 1.404 0.556 0.221 0.259 1.538 1.627 4.122 2.753 2.118 0.923 5.095 1.665 8.957 1.665 4.319 0 7.212-0.796 9.195-1.665 1.953-0.856 3.352-2.199 3.852-2.753 1.008-1.117 1.858-0.228 1.689 0.681-0.073 0.392-0.501 1.56-1.571 2.828-0.571 0.677-1.405 1.364-2.5 2.064 1.162 2.511 1.443 3.915 0.844 4.214s-1.879-0.666-3.838-2.894c-1.043 0.321-2.034 0.564-2.972 0.727s-1.953 0.27-3.046 0.32c-0.426 2.897-0.976 4.346-1.652 4.346s-1.225-1.449-1.65-4.346c-0.974-0.027-1.967-0.134-2.979-0.32s-1.963-0.438-2.851-0.753c-2.16 2.386-3.515 3.453-4.065 3.201s-0.186-1.77 1.094-4.557c-1.074-0.604-2.006-1.358-2.798-2.262s-1.345-1.847-1.663-2.83z"></path>
</svg>