<svg  xmlns="http://www.w3.org/2000/svg" viewBox="0 0 32 32">
<path d="M16 2c-7.732 0-14 6.268-14 14s6.268 14 14 14c7.732 0 14-6.268 14-14s-6.268-14-14-14v0zM26.695 11.334c0.624 1.429 0.973 3.007 0.973 4.667s-0.348 3.238-0.973 4.667h-5.261c0.257-1.447 0.398-3.021 0.398-4.667s-0.14-3.22-0.398-4.667h5.261zM12.502 16.001c0-1.676 0.129-3.262 0.362-4.667h6.269c0.234 1.405 0.365 2.991 0.365 4.667s-0.131 3.262-0.365 4.667h-6.266c-0.234-1.405-0.365-2.991-0.365-4.667v0zM25.334 9.001h-4.443c-0.542-1.821-1.286-3.32-2.163-4.344 2.64 0.636 4.976 2.172 6.605 4.344v0zM16 5.503c1.036 0 1.969 1.354 2.61 3.5h-5.219c0.641-2.149 1.574-3.5 2.61-3.5zM13.271 4.659c-0.877 1.022-1.62 2.525-2.161 4.344h-4.443c1.629-2.172 3.964-3.708 6.603-4.344v0zM5.305 11.334h5.261c-0.257 1.447-0.398 3.021-0.398 4.667s0.14 3.22 0.398 4.667h-5.261c-0.643-1.472-0.974-3.061-0.973-4.667 0-1.66 0.348-3.238 0.973-4.667v0zM6.666 23.002h4.443c0.542 1.821 1.286 3.32 2.163 4.344-2.64-0.636-4.976-2.172-6.605-4.344zM16 26.5c-1.036 0-1.969-1.354-2.61-3.5h5.219c-0.645 2.149-1.574 3.5-2.61 3.5zM18.729 27.344c0.877-1.022 1.62-2.525 2.161-4.344h4.443c-1.629 2.172-3.964 3.708-6.603 4.344v0z"></path>
</svg>