<svg  xmlns="http://www.w3.org/2000/svg" viewBox="0 0 32 32">
<path d="M5.47 29.191h-0.392c-1.417 0-2.577-1.156-2.577-2.568v-11.446c0-1.412 1.16-2.568 2.577-2.568h0.392c1.417 0 2.577 1.156 2.577 2.568v11.443c0.003 1.415-1.157 2.572-2.577 2.572zM23.843 29.5h-0.040c-1.226-0.013-2.455-0.013-3.685-0.013h-1.875c-1.252 0-2.505 0-3.76-0.016-0.695-0.020-1.381-0.164-2.027-0.427-1.097-0.427-1.724-1.379-1.72-2.618l0.003-4.644c0-2.571 0-5.146 0.023-7.718 0.003-0.7 0.455-1.356 0.841-1.701 1.493-1.36 3.115-3.054 3.793-5.34 0.188-0.637 0.26-1.34 0.336-2.082 0.152-1.478 1.114-2.44 2.399-2.44 0.504 0 1.009 0.151 1.503 0.443 0.992 0.594 1.654 1.527 2.020 2.857 0.587 2.112 0.287 4.161-0.043 5.918v0.007c-0.076 0.411 0.234 0.792 0.656 0.792h4.284c0.738 0 1.796 0.092 2.449 0.88 0.475 0.575 0.61 1.35 0.409 2.375-0.613 3.15-1.364 6.325-2.083 9.285-0.224 0.923-0.596 1.777-0.956 2.604l-0.155 0.355c-0.409 0.959-1.252 1.485-2.373 1.485z"></path>
</svg>