<!DOCTYPE svg PUBLIC "-//W3C//DTD SVG 1.1//EN" "http://www.w3.org/Graphics/SVG/1.1/DTD/svg11.dtd">
<!-- Uploaded to: SVG Repo, www.svgrepo.com, Transformed by: SVG Repo Mixer Tools -->
<svg width="100px" height="100px" viewBox="-2.4 -2.4 28.80 28.80" xmlns="http://www.w3.org/2000/svg" fill="none" transform="matrix(-1, 0, 0, 1, 0, 0)" stroke="#24e544">
<g id="SVGRepo_bgCarrier" stroke-width="0"/>
<g id="SVGRepo_tracerCarrier" stroke-linecap="round" stroke-linejoin="round" stroke="#CCCCCC" stroke-width="0.048"/>
<g id="SVGRepo_iconCarrier"> <path stroke="#08dd16" stroke-linecap="round" stroke-linejoin="round" stroke-width="0.552" d="M8.5 21c2-2-.5-6 3.5-6m0 0c-3 0-7-1-7-5 0-1.445.116-2.89.963-4V3L9 4.283C9.821 4.101 10.81 4 12 4s2.178.1 3 .283L18 3v2.952c.88 1.116 1 2.582 1 4.048 0 4-4 5-7 5Zm0 0c4 0 1.5 4 3.5 6M3 15c3 0 1.5 4 6 3"/> </g>
</svg>