<svg  xmlns="http://www.w3.org/2000/svg" viewBox="0 0 32 32">
<path d="M21.169 22.649l-1.503-1.503c-1.784 1.46-4.063 2.337-6.547 2.34-5.718 0-10.354-4.636-10.354-10.354s4.636-10.354 10.354-10.354c5.718 0 10.354 4.636 10.354 10.354-0.003 2.466-0.868 4.73-2.308 6.508l1.506 1.506-0.034 0.033 0.013-0.011c0.325-0.258 0.799-0.236 1.1 0.064l5.243 5.243c0.323 0.323 0.323 0.848 0 1.172l-1.332 1.332c-0.323 0.323-0.848 0.323-1.172 0l-5.243-5.243c-0.3-0.3-0.322-0.774-0.064-1.1l-0.012 0.012zM13.119 5.257c-4.349 0-7.875 3.526-7.875 7.875s3.526 7.875 7.875 7.875c4.349 0 7.875-3.526 7.875-7.875-0.004-4.348-3.527-7.871-7.875-7.875z"></path>
</svg>