<svg  xmlns="http://www.w3.org/2000/svg" viewBox="0 0 32 32">
<path d="M18.262 2l0.001 3.36c0 3.631 2.908 6.589 6.544 6.716l0.244 0.004 3.394-0.001v11.699c0 3.436-2.786 6.222-6.222 6.222h-12.444c-3.436 0-6.222-2.786-6.222-6.222v-15.556c0-3.437 2.786-6.222 6.222-6.222h8.484zM22.811 20.624l-13.259 0.007c-0.713 0.072-1.27 0.668-1.27 1.393 0 0.773 0.633 1.4 1.414 1.4v0l13.259-0.007c0.713-0.072 1.27-0.668 1.27-1.393 0-0.773-0.633-1.4-1.414-1.4v0zM22.811 13.904l-13.259 0.007c-0.713 0.072-1.27 0.668-1.27 1.393 0 0.773 0.633 1.4 1.414 1.4v0l13.259-0.007c0.713-0.072 1.27-0.668 1.27-1.393 0-0.773-0.633-1.4-1.414-1.4v0zM22.222 2c3.436 0 6.222 2.786 6.222 6.222v1.057l-3.394 0.001-0.217-0.006c-2.016-0.108-3.631-1.709-3.737-3.706l-0.006-0.208v-3.36h1.131z"></path>
</svg>