<svg  xmlns="http://www.w3.org/2000/svg" viewBox="0 0 32 32">
<path d="M17.063 4.419c0.209 0.002 0.403 0.065 0.566 0.172l-0.004-0.003 11.14 8.981c0.242 0.203 0.395 0.505 0.395 0.843s-0.153 0.64-0.393 0.841l-0.002 0.001-11.174 8.981c-0.158 0.109-0.353 0.174-0.564 0.174-0.348 0-0.655-0.178-0.835-0.448l-0.002-0.004c-0.11-0.155-0.176-0.348-0.176-0.556 0-0.002 0-0.004 0-0.006v0-3.729c-6.477 0.487-9.401 4.061-11.675 7.553-0.149 0.22-0.398 0.362-0.68 0.362-0.452 0-0.819-0.367-0.819-0.819 0-0.044 0.003-0.088 0.010-0.13l-0.001 0.005c0.88-8.643 6.315-15.275 13.164-17.218v-3.986c0 0 0 0 0-0.001 0-0.561 0.454-1.015 1.015-1.015 0.012 0 0.024 0 0.036 0.001h-0.002z"></path>
</svg>