<svg  xmlns="http://www.w3.org/2000/svg" viewBox="0 0 32 32">
<path d="M22.321 4.5c1.349 0 2.553 1.664 3.34 4.268l0.010-0.001 0.125 0.482c0.996 4.087 0.927 9.84-0.427 14.855h-0.001c-0.778 2.098-1.856 3.396-3.048 3.396l-0.073-0.005 0.001 0.005-12.621-0.008c-1.114-0.112-2.119-1.36-2.858-3.323l-0.011-0.001c-1.075-5.023-1.132-10.99-0.346-15.109l0.105-0.513h0.005c0.773-2.43 1.918-3.988 3.199-4.044v-0.002h12.6zM5.97 8.545c-0.757 2.557-1.106 5.207-1.044 7.948 0.056 2.546 0.443 4.979 1.161 7.299l0.12 0.373h-0.718c-1.071 0-1.891-1.616-2.328-3.921-1.136-0.585-1.946-2.116-1.946-3.912 0-1.772 0.788-3.284 1.899-3.888 0.424-2.333 1.265-3.9 2.377-3.9h0.481zM26.637 8.769c1.041 0.132 1.94 1.572 2.427 3.784 1.018 0.66 1.722 2.105 1.722 3.779 0 1.648-0.682 3.074-1.672 3.749-0.448 2.217-1.302 3.713-2.307 3.978l-0.169 0.032-0.002 0.011-0.762 0.001 0.177-0.455c0.787-2.135 1.232-4.459 1.332-6.972 0.11-2.748-0.291-5.383-1.204-7.908h0.457l0.001-0.001zM13.547 11.452l-0.349 0.134-0.514 0.233c-0.142 0.028-0.227-0.054-0.256-0.246s-0.157-0.293-0.384-0.301c-0.427 0-0.78 0.020-1.058 0.061-0.239 0.034-0.362 0.151-0.371 0.349l0.005 0.106-0.115 3.415c-0.014 0.138 0 0.24 0.043 0.308 0.029 0.046 0.071 0.075 0.125 0.090l0.092 0.010 1.326-0.027c0.077 0.024 0.143 0.012 0.202-0.036 0.038-0.031 0.073-0.080 0.104-0.143l0.042-0.107 0.175-0.303c0.161-0.282 0.375-0.479 0.641-0.59 0.222-0.092 0.522-0.107 0.902-0.046l0.238 0.046 1.923 0.553c0.491 0.078 0.978 0.078 1.46 0s0.931-0.239 1.347-0.481c-0.145 0.174-0.357 0.372-0.635 0.591s-0.625 0.462-1.038 0.727c-0.26 0.13-0.531 0.28-0.813 0.452s-0.575 0.365-0.878 0.579c-0.319 0.245-0.597 0.494-0.831 0.748s-0.426 0.511-0.575 0.772c-0.194 0.308-0.348 0.665-0.457 1.070s-0.177 0.86-0.202 1.363c-0.017 0.133 0.003 0.232 0.059 0.297 0.042 0.049 0.105 0.077 0.189 0.087l0.091 0.003 4.656 0.009c0.212 0.021 0.359 0.012 0.441-0.026 0.062-0.028 0.089-0.075 0.079-0.137l-0.022-0.068-0.080-0.433c-0.036-0.294-0.052-0.622-0.047-0.984s0.029-0.759 0.075-1.19c0.049-0.373 0.12-0.739 0.211-1.095s0.202-0.704 0.332-1.043c0.134-0.37 0.284-0.736 0.45-1.095s0.349-0.713 0.546-1.061c0.113-0.233 0.275-0.506 0.487-0.819s0.473-0.665 0.783-1.057c0.072-0.074 0.108-0.14 0.108-0.196 0-0.038-0.016-0.073-0.047-0.104l-0.059-0.043-0.281-0.131-0.578-0.359c-0.080-0.055-0.148-0.075-0.208-0.063s-0.109 0.058-0.148 0.137c-0.071 0.094-0.163 0.172-0.279 0.232s-0.254 0.102-0.415 0.128c-0.218 0.036-0.435 0.055-0.653 0.057s-0.436-0.014-0.655-0.048c-1.001-0.195-1.939-0.373-2.813-0.534-0.765-0.141-1.553-0.070-2.364 0.211h-0.005z"></path>
</svg>