<svg width="36" height="36" viewBox="0 0 36 36" fill="none" xmlns="http://www.w3.org/2000/svg">
<circle cx="18" cy="18" r="18" fill="#F23048"/>
<path d="M17.3631 30.9232C21.6022 25.5886 26.2064 20.2824 30.4495 14.9478C29.1403 13.6634 26.1448 10.5446 26.0256 10.5199C20.8714 9.48554 13.8953 8.23847 7.74002 7.20007L17.3631 30.9232ZM24.1012 11.5295C22.4598 12.8962 20.687 14.4963 19.0455 15.863L10.8179 8.842C14.9216 9.52287 19.9976 10.8446 24.1012 11.5295ZM10.2436 10.04C12.8412 11.9563 15.9888 14.8579 18.5657 16.7741C18.2909 20.1925 17.5439 23.8941 17.2687 27.3124L10.2436 10.04ZM18.4096 27.3079C18.6844 24.1603 19.3369 20.4465 19.6121 17.2994C22.1562 16.9504 25.4846 16.3883 27.7948 16.0969L18.4096 27.3079ZM28.0574 14.5867L20.6708 15.8792L25.3856 12.0588" fill="white"/>
</svg>
