<svg  xmlns="http://www.w3.org/2000/svg" viewBox="0 0 32 32">
<path d="M8.616 6.541l3.769 0.521c0.13 0.018 0.259 0.042 0.385 0.071l-3.503 4.327c-1.522 1.879-1.945 4.421-1.119 6.707v0l1.505 4.161-2.891-0.399c-1.475-0.204-2.727-1.155-3.301-2.509l-1.676-3.948c-0.575-1.354-0.389-2.915 0.489-4.118l2.244-3.073c0.939-1.287 2.52-1.957 4.098-1.74z"></path>
<path d="M28.646 10.154l1.591 4.474c0.623 1.751 0.287 3.705-0.887 5.155l-3.423 4.227c-1.174 1.45-3.015 2.185-4.858 1.939l-4.707-0.626c-1.971-0.262-3.627-1.603-4.293-3.476l-1.591-4.474c-0.623-1.751-0.287-3.705 0.887-5.155l3.423-4.227c1.174-1.45 3.015-2.185 4.858-1.939l4.707 0.626c1.971 0.262 3.627 1.603 4.293 3.476zM18.863 23.219c-0.034-0.447-0.639-0.733-1.351-0.638s-1.261 0.535-1.226 0.982c0.034 0.447 0.639 0.733 1.351 0.638s1.261-0.535 1.226-0.982zM16.702 14.794c-0.092-1.262-0.853-2.193-1.698-2.081s-1.456 1.226-1.364 2.488c0.092 1.262 0.853 2.193 1.698 2.081s1.456-1.226 1.364-2.488zM23.475 21.48c-0.034-0.447-0.639-0.733-1.351-0.638s-1.261 0.535-1.226 0.982c0.034 0.447 0.639 0.733 1.351 0.638s1.261-0.535 1.226-0.982zM27.683 19.934c-0.034-0.447-0.639-0.733-1.351-0.638s-1.261 0.535-1.226 0.982c0.034 0.447 0.639 0.733 1.351 0.638s1.261-0.535 1.226-0.982zM27.631 12.879c-0.735-0.596-1.655-0.679-2.054-0.186s-0.126 1.375 0.609 1.97c0.735 0.596 1.655 0.679 2.054 0.186s0.126-1.375-0.609-1.97zM21.961 8.287c-0.735-0.596-1.655-0.679-2.054-0.186s-0.126 1.375 0.609 1.97c0.735 0.596 1.655 0.679 2.054 0.186s0.126-1.375-0.609-1.97z"></path>
</svg>