<svg width="36" height="36" viewBox="0 0 36 36" fill="none" xmlns="http://www.w3.org/2000/svg">
<g clip-path="url(#clip0_13789_67077)">
<path d="M0 18C0 22.7739 1.89642 27.3523 5.27208 30.7279C8.64773 34.1036 13.2261 36 18 36C22.7739 36 27.3523 34.1036 30.7279 30.7279C34.1036 27.3523 36 22.7739 36 18C36 13.2261 34.1036 8.64773 30.7279 5.27208C27.3523 1.89642 22.7739 0 18 0C13.2261 0 8.64773 1.89642 5.27208 5.27208C1.89642 8.64773 0 13.2261 0 18Z" fill="#2775CA"/>
<path d="M22.42 5.41003C22.82 5.53203 25.812 6.70403 27.958 9.07803C30.104 11.45 31.18 14.184 31.444 16.738C31.704 19.294 31.368 22.408 29.664 25.154C27.958 27.902 26.204 29.062 25.26 29.68C24.318 30.296 22.99 30.848 22.494 31.022C21.996 31.198 21.86 31.278 21.644 31.124C21.428 30.968 21.376 30.856 21.376 30.64V29.446C21.376 29.276 21.464 28.942 21.942 28.756C22.42 28.572 23.294 28.246 24.432 27.44C25.572 26.636 26.368 25.87 27.438 24.306C28.508 22.742 29.09 20.378 29.166 19.226C29.242 18.072 29.282 16.238 28.39 14.038C27.498 11.838 26.278 10.648 25.354 9.79803C24.6122 9.13494 23.7765 8.58501 22.874 8.16603C22.31 7.89203 21.944 7.77403 21.82 7.71803C21.6875 7.638 21.5774 7.52585 21.4998 7.39196C21.4222 7.25806 21.3796 7.10675 21.376 6.95203V6.00003C21.376 5.82603 21.336 5.64003 21.544 5.41203C21.75 5.18403 22.018 5.28803 22.42 5.41203V5.41003ZM13.584 5.41003C13.984 5.28603 14.252 5.18203 14.458 5.41003C14.666 5.63603 14.626 5.82403 14.626 5.99803V6.95203C14.6226 7.10656 14.5803 7.25775 14.5031 7.39163C14.4258 7.52551 14.3161 7.63776 14.184 7.71803C14.058 7.77403 13.692 7.89203 13.128 8.16603C12.562 8.43803 11.57 8.94603 10.648 9.79803C9.72601 10.648 8.50401 11.838 7.61201 14.038C6.72001 16.238 6.76001 18.072 6.83601 19.226C6.91201 20.378 7.49601 22.742 8.56401 24.306C9.63401 25.87 10.432 26.636 11.57 27.44C12.71 28.246 13.584 28.572 14.062 28.756C14.54 28.942 14.626 29.276 14.626 29.446V30.64C14.626 30.856 14.574 30.968 14.358 31.124C14.142 31.278 14.006 31.198 13.508 31.024C13.012 30.848 11.686 30.296 10.742 29.68C9.80201 29.06 8.04401 27.902 6.34001 25.154C4.63601 22.408 4.29601 19.294 4.56001 16.738C4.82001 14.184 5.89801 11.45 8.04401 9.07803C10.192 6.70403 13.18 5.53203 13.584 5.41003ZM18.508 9.14603C19.018 9.14603 19.134 9.62403 19.134 9.80203V11.522C19.304 11.55 19.486 11.588 19.68 11.63C20.8 11.874 21.524 12.678 21.86 13.098C22.194 13.518 22.444 14.202 22.502 14.612C22.5161 14.6865 22.5136 14.7632 22.4947 14.8366C22.4758 14.91 22.441 14.9784 22.3927 15.0368C22.3444 15.0953 22.2838 15.1423 22.2152 15.1747C22.1467 15.207 22.0718 15.2239 21.996 15.224H20.772C20.56 15.224 20.326 15.072 20.268 14.904C20.208 14.734 20.128 14.394 19.88 14.094C19.6212 13.759 19.2592 13.5186 18.85 13.41C18.2292 13.2463 17.5789 13.2285 16.95 13.358C16.148 13.53 15.616 14.062 15.544 14.726C15.47 15.392 15.612 15.738 15.776 15.964C15.942 16.19 16.198 16.53 17.2 16.77C18.2 17.01 19.694 17.038 20.986 17.596C22.278 18.156 22.73 19.064 22.906 20.14C23.0729 21.1431 22.848 22.172 22.278 23.014C21.74 23.818 20.544 24.654 19.236 24.824C19.2014 24.8282 19.1667 24.8322 19.132 24.836L19.134 26.6C19.134 26.78 19.018 27.256 18.508 27.256H17.354C16.974 27.256 16.798 26.778 16.798 26.6V24.812C16.5404 24.771 16.2848 24.7183 16.032 24.654C15.116 24.424 14.112 23.808 13.642 23.114C13.2634 22.5554 13.0122 21.9204 12.906 21.254C12.854 20.834 13.166 20.628 13.384 20.628H14.736C14.842 20.628 15.17 20.702 15.25 21.158C15.33 21.612 15.478 21.964 15.776 22.268C16.076 22.572 16.602 22.966 17.636 23.014C18.67 23.064 19.166 22.91 19.68 22.598C20.196 22.286 20.626 21.642 20.544 20.752C20.462 19.864 19.88 19.506 18.85 19.216C17.818 18.926 16.95 18.878 16.422 18.756C15.894 18.63 14.63 18.31 13.982 17.596C13.332 16.884 13.122 16.16 13.122 15.07C13.122 13.978 13.652 13.17 14.172 12.67C14.8916 11.9912 15.8171 11.5717 16.802 11.478L16.8 9.80003C16.8 9.62003 16.976 9.14403 17.356 9.14403L18.508 9.14603Z" fill="white"/>
</g>
<defs>
<clipPath id="clip0_13789_67077">
<rect width="36" height="36" fill="white"/>
</clipPath>
</defs>
</svg>
