<svg width="36" height="36" viewBox="0 0 36 36" fill="none" xmlns="http://www.w3.org/2000/svg">
<g clip-path="url(#clip0_13786_66924)">
<path d="M0.0767212 18.0641C0.0767212 20.4253 0.541785 22.7633 1.44536 24.9448C2.34894 27.1262 3.67333 29.1083 5.34292 30.7779C7.01251 32.4474 8.99459 33.7718 11.176 34.6754C13.3574 35.579 15.6955 36.0441 18.0566 36.0441C20.4178 36.0441 22.7558 35.579 24.9372 34.6754C27.1187 33.7718 29.1008 32.4474 30.7704 30.7779C32.4399 29.1083 33.7643 27.1262 34.6679 24.9448C35.5715 22.7633 36.0365 20.4253 36.0365 18.0641C36.0365 15.703 35.5715 13.3649 34.6679 11.1835C33.7643 9.0021 32.4399 7.02001 30.7704 5.35042C29.1008 3.68083 27.1187 2.35644 24.9372 1.45287C22.7558 0.549293 20.4178 0.0842285 18.0566 0.0842285C15.6955 0.0842285 13.3574 0.549293 11.176 1.45287C8.99459 2.35644 7.01251 3.68083 5.34292 5.35042C3.67333 7.02001 2.34894 9.0021 1.44536 11.1835C0.541785 13.3649 0.0767212 15.703 0.0767212 18.0641Z" fill="#26A17B"/>
<path d="M29.0129 17.0803C29.0129 15.3924 24.8757 14.4032 20.2295 14.1686V12.1026H26.7199V7.7561H9.39253V12.1026H15.8834V14.1686C11.2375 14.4032 7.09995 15.3928 7.09995 17.0803C7.09995 18.7674 11.2371 19.7566 15.8834 19.9913V28.3725H20.2299V19.9917C24.8757 19.757 29.0129 18.7674 29.0129 17.0803ZM20.2295 19.2685V19.2596C19.5195 19.303 18.7807 19.3175 18.0562 19.3175C17.3318 19.3175 16.5929 19.303 15.883 19.2596V19.2685C10.8406 19.0137 7.82396 17.9048 7.82396 17.0803C7.82396 16.2563 10.8402 15.1465 15.883 14.8918V18.5352C16.5785 18.5786 17.3029 18.5931 18.0562 18.5931C18.8241 18.5931 19.5485 18.5786 20.2295 18.5352V14.8918C25.2719 15.1465 28.2885 16.2563 28.2885 17.0803C28.2885 17.9048 25.2723 19.0137 20.2295 19.2685Z" fill="white"/>
</g>
<defs>
<clipPath id="clip0_13786_66924">
<rect width="36" height="36" fill="white"/>
</clipPath>
</defs>
</svg>
