<svg  xmlns="http://www.w3.org/2000/svg" viewBox="0 0 32 32">
<path d="M16 13.080c0.002-0.449 0.133-0.868 0.357-1.221l-0.006 0.009h-0.351c-2.292 0-4.15 1.858-4.15 4.15s1.858 4.15 4.15 4.15c2.292 0 4.15-1.858 4.15-4.15v0c-0.002-0.471-0.082-0.924-0.226-1.346l0.009 0.030c-0.417 0.424-0.997 0.687-1.638 0.687-1.267 0-2.295-1.027-2.296-2.294v0z"></path>
<path d="M16 7.307c-7.926 0-14.349 5.982-14.349 8.696s6.423 8.689 14.349 8.689 14.349-5.862 14.349-8.689-6.423-8.696-14.349-8.696zM16 22.397c-0.002 0-0.005 0-0.007 0-3.535 0-6.401-2.866-6.401-6.401s2.866-6.401 6.401-6.401c3.535 0 6.401 2.866 6.401 6.401 0 0.003 0 0.005 0 0.008v0c0 3.531-2.862 6.393-6.393 6.393v0z"></path>
</svg>